<?xml version="1.0" encoding="UTF-8"?>
<!DOCTYPE svg PUBLIC "-//W3C//DTD SVG 1.1//EN" "http://www.w3.org/Graphics/SVG/1.1/DTD/svg11.dtd">
<svg version="1.2" width="180.62mm" height="180.62mm" viewBox="0 0 18062 18062" preserveAspectRatio="xMidYMid" fill-rule="evenodd" stroke-width="28.222" stroke-linejoin="round" xmlns="http://www.w3.org/2000/svg" xmlns:ooo="http://xml.openoffice.org/svg/export" xmlns:xlink="http://www.w3.org/1999/xlink" xmlns:presentation="http://sun.com/xmlns/staroffice/presentation" xmlns:smil="http://www.w3.org/2001/SMIL20/" xmlns:anim="urn:oasis:names:tc:opendocument:xmlns:animation:1.0" xml:space="preserve">
 <defs class="ClipPathGroup">
  <clipPath id="presentation_clip_path" clipPathUnits="userSpaceOnUse">
   <rect x="0" y="0" width="18062" height="18062"/>
  </clipPath>
 </defs>
 <defs class="TextShapeIndex">
  <g ooo:slide="id1" ooo:id-list="id3"/>
 </defs>
 <defs class="EmbeddedBulletChars">
  <g id="bullet-char-template(57356)" transform="scale(0.00048828125,-0.00048828125)">
   <path d="M 580,1141 L 1163,571 580,0 -4,571 580,1141 Z"/>
  </g>
  <g id="bullet-char-template(57354)" transform="scale(0.00048828125,-0.00048828125)">
   <path d="M 8,1128 L 1137,1128 1137,0 8,0 8,1128 Z"/>
  </g>
  <g id="bullet-char-template(10146)" transform="scale(0.00048828125,-0.00048828125)">
   <path d="M 174,0 L 602,739 174,1481 1456,739 174,0 Z M 1358,739 L 309,1346 659,739 1358,739 Z"/>
  </g>
  <g id="bullet-char-template(10132)" transform="scale(0.00048828125,-0.00048828125)">
   <path d="M 2015,739 L 1276,0 717,0 1260,543 174,543 174,936 1260,936 717,1481 1274,1481 2015,739 Z"/>
  </g>
  <g id="bullet-char-template(10007)" transform="scale(0.00048828125,-0.00048828125)">
   <path d="M 0,-2 C -7,14 -16,27 -25,37 L 356,567 C 262,823 215,952 215,954 215,979 228,992 255,992 264,992 276,990 289,987 310,991 331,999 354,1012 L 381,999 492,748 772,1049 836,1024 860,1049 C 881,1039 901,1025 922,1006 886,937 835,863 770,784 769,783 710,716 594,584 L 774,223 C 774,196 753,168 711,139 L 727,119 C 717,90 699,76 672,76 641,76 570,178 457,381 L 164,-76 C 142,-110 111,-127 72,-127 30,-127 9,-110 8,-76 1,-67 -2,-52 -2,-32 -2,-23 -1,-13 0,-2 Z"/>
  </g>
  <g id="bullet-char-template(10004)" transform="scale(0.00048828125,-0.00048828125)">
   <path d="M 285,-33 C 182,-33 111,30 74,156 52,228 41,333 41,471 41,549 55,616 82,672 116,743 169,778 240,778 293,778 328,747 346,684 L 369,508 C 377,444 397,411 428,410 L 1163,1116 C 1174,1127 1196,1133 1229,1133 1271,1133 1292,1118 1292,1087 L 1292,965 C 1292,929 1282,901 1262,881 L 442,47 C 390,-6 338,-33 285,-33 Z"/>
  </g>
  <g id="bullet-char-template(9679)" transform="scale(0.00048828125,-0.00048828125)">
   <path d="M 813,0 C 632,0 489,54 383,161 276,268 223,411 223,592 223,773 276,916 383,1023 489,1130 632,1184 813,1184 992,1184 1136,1130 1245,1023 1353,916 1407,772 1407,592 1407,412 1353,268 1245,161 1136,54 992,0 813,0 Z"/>
  </g>
  <g id="bullet-char-template(8226)" transform="scale(0.00048828125,-0.00048828125)">
   <path d="M 346,457 C 273,457 209,483 155,535 101,586 74,649 74,723 74,796 101,859 155,911 209,963 273,989 346,989 419,989 480,963 531,910 582,859 608,796 608,723 608,648 583,586 532,535 482,483 420,457 346,457 Z"/>
  </g>
  <g id="bullet-char-template(8211)" transform="scale(0.00048828125,-0.00048828125)">
   <path d="M -4,459 L 1135,459 1135,606 -4,606 -4,459 Z"/>
  </g>
 </defs>
 <defs class="TextEmbeddedBitmaps"/>
 <g>
  <g id="id2" class="Master_Slide">
   <g id="bg-id2" class="Background"/>
   <g id="bo-id2" class="BackgroundObjects"/>
  </g>
 </g>
 <g class="SlideGroup">
  <g>
   <g id="id1" class="Slide" clip-path="url(#presentation_clip_path)">
    <g class="Page">
     <g class="com.sun.star.drawing.ClosedBezierShape">
      <g id="id3">
       <rect class="BoundingBox" stroke="none" fill="none" x="1764" y="2349" width="14536" height="13366"/>
       <path fill="rgb(204,204,204)" stroke="none" d="M 11777,8030 L 11777,6681 11048,6422 C 10771,6323 10547,6111 10434,5839 L 10434,5839 C 10321,5566 10329,5257 10455,4990 L 10787,4292 9834,3339 9136,3670 C 8869,3797 8560,3805 8287,3692 L 8287,3692 C 8015,3579 7803,3356 7704,3078 L 7445,2349 6096,2349 5837,3078 C 5738,3355 5526,3579 5254,3692 L 5253,3692 C 4980,3805 4672,3797 4405,3670 L 3707,3339 2754,4292 3085,4990 C 3212,5257 3220,5566 3107,5839 L 3107,5839 C 2994,6111 2771,6323 2493,6422 L 1764,6681 1764,8030 2493,8289 C 2770,8388 2994,8600 3107,8872 L 3107,8873 C 3220,9146 3212,9454 3085,9721 L 2754,10419 3707,11372 4405,11041 C 4672,10914 4981,10906 5254,11019 L 5254,11019 C 5526,11132 5738,11355 5837,11633 L 6096,12362 7445,12362 7702,11638 C 7802,11358 8016,11132 8291,11018 L 8291,11018 C 8562,10905 8867,10913 9131,11039 L 9834,11372 10787,10419 10455,9720 C 10329,9454 10321,9146 10434,8873 L 10434,8873 C 10547,8600 10771,8388 11049,8289 L 11777,8030 Z M 6771,9192 C 5756,9192 4934,8370 4934,7356 4934,6342 5756,5519 6771,5519 7784,5519 8607,6342 8607,7356 8607,8370 7784,9192 6771,9192 Z M 16299,11995 L 16299,11278 15912,11140 C 15764,11088 15645,10975 15585,10830 L 15585,10830 C 15525,10685 15529,10521 15597,10379 L 15773,10008 15266,9501 14895,9677 C 14753,9745 14589,9749 14444,9689 L 14444,9689 C 14299,9628 14187,9510 14134,9362 L 13996,8975 13279,8975 13142,9362 C 13089,9510 12976,9629 12832,9689 L 12831,9689 C 12686,9749 12522,9745 12381,9677 L 12009,9501 11502,10008 11679,10379 C 11746,10521 11751,10685 11690,10830 L 11690,10830 C 11630,10975 11512,11087 11364,11140 L 10976,11278 10976,11995 11364,12132 C 11511,12185 11630,12298 11690,12442 L 11690,12443 C 11751,12588 11746,12752 11679,12893 L 11502,13265 12009,13771 12381,13595 C 12522,13528 12686,13524 12832,13584 L 12832,13584 C 12977,13644 13089,13762 13142,13910 L 13279,14298 13996,14298 14133,13913 C 14186,13764 14300,13644 14446,13583 L 14446,13583 C 14590,13523 14752,13527 14893,13594 L 15266,13771 15773,13265 15597,12893 C 15529,12752 15525,12588 15585,12443 L 15585,12443 C 15646,12298 15764,12185 15912,12132 L 16299,11995 Z M 13638,12612 C 13099,12612 12662,12175 12662,11636 12662,11097 13099,10660 13638,10660 14177,10660 14614,11097 14614,11636 14614,12175 14177,12612 13638,12612 Z M 11123,14105 L 11123,13712 10850,13644 C 10793,13630 10748,13586 10733,13529 L 10733,13528 C 10718,13473 10735,13413 10776,13373 L 10980,13176 10783,12836 10513,12913 C 10456,12929 10395,12914 10353,12872 L 10352,12872 C 10312,12831 10297,12773 10313,12718 L 10391,12444 10051,12247 9855,12450 C 9814,12492 9754,12509 9697,12493 L 9697,12493 C 9641,12478 9598,12435 9584,12378 L 9515,12104 9122,12104 9053,12377 C 9039,12434 8995,12479 8939,12494 L 8938,12494 C 8882,12509 8823,12492 8783,12451 L 8586,12247 8246,12444 8323,12714 C 8339,12771 8323,12832 8281,12874 L 8281,12874 C 8241,12915 8182,12930 8128,12914 L 7853,12836 7657,13176 7860,13372 C 7901,13413 7918,13473 7903,13530 L 7903,13530 C 7888,13586 7844,13629 7788,13643 L 7513,13712 7513,14105 7787,14174 C 7843,14188 7888,14232 7903,14288 L 7903,14289 C 7918,14345 7902,14404 7861,14444 L 7657,14641 7853,14981 8123,14904 C 8180,14888 8242,14904 8284,14946 L 8284,14946 C 8324,14986 8340,15045 8324,15099 L 8246,15374 8586,15570 8782,15367 C 8823,15325 8883,15309 8939,15324 L 8940,15324 C 8996,15339 9039,15383 9053,15439 L 9122,15714 9515,15714 9583,15440 C 9597,15383 9641,15339 9698,15324 L 9699,15323 C 9754,15309 9814,15325 9854,15366 L 10051,15570 10391,15374 10314,15104 C 10297,15047 10313,14985 10355,14943 L 10355,14943 C 10396,14903 10454,14887 10509,14903 L 10783,14981 10980,14641 10777,14445 C 10735,14404 10718,14344 10733,14288 L 10734,14287 C 10748,14231 10792,14188 10848,14174 L 11123,14105 Z M 9318,14617 C 8927,14617 8610,14300 8610,13909 8610,13517 8927,13200 9318,13200 9710,13200 10027,13517 10027,13909 10027,14300 9710,14617 9318,14617 Z"/>
      </g>
     </g>
    </g>
   </g>
  </g>
 </g>
</svg>